# Blender 3.6.2
# www.blender.org
mtllib slime_eye_low.mtl
o Sphere
v -1.296811 1.191690 0.502408
v -1.321943 1.011997 0.443803
v -1.125515 1.372506 0.393963
v -1.244981 1.264775 0.385060
v -1.246111 1.135619 0.361054
v -1.263753 1.008231 0.451052
v -1.146718 1.165785 0.432241
v -1.085105 1.402504 0.462160
v -1.111501 1.406423 0.523980
v -1.212889 1.181434 0.590648
v -1.307264 1.028048 0.527792
v -1.261723 1.240439 -0.398431
v -1.099701 1.407426 -0.426543
v -1.132546 1.410597 -0.498406
v -1.326691 1.008610 -0.448830
v -1.274888 1.065160 -0.385932
v -1.154088 1.200892 -0.369944
v -1.283283 0.999209 -0.492461
v -1.177506 1.160179 -0.557934
v -1.115508 1.341241 -0.547223
v -1.295285 1.088946 -0.556572
v -1.226652 1.283812 -0.551494
vn -0.9002 0.3530 0.2550
vn 0.2542 0.7436 0.6184
vn -0.6433 0.4682 -0.6058
vn 0.7556 0.6463 -0.1067
vn 0.1896 0.5994 -0.7776
vn -0.1096 -0.2190 -0.9695
vn -0.6843 -0.6356 -0.3574
vn 0.4310 -0.8841 -0.1808
vn 0.8843 -0.4173 -0.2094
vn 0.1457 -0.0730 0.9866
vn -0.7302 0.3899 0.5610
vn 0.5182 0.6860 0.5107
vn -0.0133 0.9451 -0.3266
vn -0.7275 -0.6280 0.2763
vn 0.1417 -0.9399 -0.3106
vn -0.0953 -0.4540 0.8859
vn 0.6225 -0.3181 -0.7151
vn 0.6527 0.1567 -0.7412
vn -0.5860 -0.1448 -0.7973
vn -0.5959 0.3887 -0.7027
vn -0.4175 -0.5802 0.6993
vn 0.6100 -0.1902 0.7692
vt 0.798156 0.420108
vt 0.897026 0.787353
vt 0.628137 0.548836
vt 0.829539 0.934325
vt 0.522523 0.789702
vt 0.503082 0.382401
vt 0.535251 0.099341
vt 0.289246 0.203659
vt 0.297752 0.500985
vt 0.052881 0.482517
vt 0.065921 0.748600
vt 0.951034 0.539738
vt 0.640776 0.492810
vt 0.427323 0.870187
vt 0.899142 0.864927
vt 0.579112 0.098093
vt 0.112999 0.156421
vt 0.484755 0.262916
vt 0.113567 0.455910
vt 0.067439 0.748356
vt 0.016357 0.898551
vt 0.007632 0.317770
vt 0.879913 0.581541
vt 0.282378 0.905579
vt 0.961577 0.181447
vt 0.392907 0.532799
vt 0.929640 0.279971
vt 0.990091 0.676364
vt 0.983526 0.120430
vt 0.031123 0.156793
s 1
usemtl Eyes
f 1/1/1 9/2/2 4/3/3
f 9/2/2 8/4/4 3/5/5
f 4/3/3 5/6/6 2/7/7
f 2/7/7 5/6/6 6/8/8
f 5/6/6 3/5/5 7/9/9
f 7/9/9 10/10/10 6/8/8
f 7/9/9 9/11/2 10/10/10
f 9/2/2 1/1/1 10/12/10
f 12/13/11 13/14/12 14/15/13
f 15/16/14 18/17/15 16/18/16
f 19/19/17 20/20/18 13/14/12
f 20/20/18 14/21/13 13/14/12
f 21/22/19 19/19/17 18/17/15
f 21/22/19 20/20/18 19/19/17
f 12/13/11 14/15/13 22/23/20
f 15/16/14 12/13/11 22/23/20
f 1/1/1 4/3/3 2/7/7
f 7/9/9 3/5/5 8/24/4
f 7/9/9 8/24/4 9/11/2
f 1/1/1 11/25/21 10/12/10
f 16/18/16 12/13/11 15/16/14
f 12/13/11 16/18/16 17/26/22
f 12/13/11 17/26/22 13/14/12
f 17/26/22 18/17/15 19/19/17
f 16/18/16 18/17/15 17/26/22
f 17/26/22 19/19/17 13/14/12
f 21/27/19 22/23/20 20/28/18
f 21/27/19 18/29/15 15/16/14
f 21/27/19 15/16/14 22/23/20
f 3/5/5 5/6/6 4/3/3
f 7/9/9 6/8/8 5/6/6
f 11/30/21 2/7/7 6/8/8
f 11/30/21 6/8/8 10/10/10
f 1/1/1 2/7/7 11/25/21
f 3/5/5 4/3/3 9/2/2
f 20/28/18 22/23/20 14/15/13
