# Blender 3.6.2
# www.blender.org
mtllib ConvexHullSimpFiole.mtl
o Cube
v -0.885422 -1.181558 0.885422
v -0.885422 -1.181558 -0.885422
v 0.885422 -1.181558 0.885422
v 0.885422 -1.181558 -0.885422
v -1.000000 -1.000000 -1.000000
v -1.000000 -1.000000 1.000000
v 1.000000 -1.000000 -1.000000
v 1.000000 -1.000000 1.000000
v -0.300000 1.749707 0.300000
v -0.300000 1.749707 -0.300000
v 0.300000 1.749707 -0.300000
v 0.300000 1.749707 0.300000
vn -0.0000 0.2467 -0.9691
vn -0.9691 0.2467 -0.0000
vn 0.9691 0.2467 -0.0000
vn -0.0000 -0.5337 0.8457
vn -0.0000 0.2467 0.9691
vn -0.8457 -0.5337 -0.0000
vn 0.8457 -0.5337 -0.0000
vn -0.0000 -0.5337 -0.8457
vn -0.0000 -1.0000 -0.0000
vn -0.0000 1.0000 -0.0000
vt 0.000000 0.000000
s 0
f 11/1/1 7/1/1 5/1/1 10/1/1
f 10/1/2 5/1/2 6/1/2 9/1/2
f 8/1/3 7/1/3 11/1/3 12/1/3
f 3/1/4 8/1/4 6/1/4 1/1/4
f 6/1/5 8/1/5 12/1/5 9/1/5
f 6/1/6 5/1/6 2/1/6 1/1/6
f 4/1/7 7/1/7 8/1/7 3/1/7
f 5/1/8 7/1/8 4/1/8 2/1/8
f 2/1/9 4/1/9 3/1/9 1/1/9
f 12/1/10 11/1/10 10/1/10 9/1/10
