# Blender 3.6.2
# www.blender.org
mtllib ConvexBaseSimpFiole.mtl
o Cube
v -0.885422 -1.181558 0.885422
v -0.300000 0.712703 0.300000
v -0.885422 -1.181558 -0.885422
v -0.300000 0.712703 -0.300000
v 0.885422 -1.181558 0.885422
v 0.300000 0.712703 0.300000
v 0.885422 -1.181558 -0.885422
v 0.300000 0.712703 -0.300000
v -1.000000 -1.000000 -1.000000
v -1.000000 -1.000000 1.000000
v 1.000000 -1.000000 -1.000000
v 1.000000 -1.000000 1.000000
vn -0.9257 0.3783 -0.0000
vn -0.0000 0.3783 -0.9257
vn 0.9257 0.3783 -0.0000
vn -0.0000 0.3783 0.9257
vn -0.0000 -1.0000 -0.0000
vn -0.8457 -0.5337 -0.0000
vn -0.0000 -0.5337 -0.8457
vn 0.8457 -0.5337 -0.0000
vn -0.0000 -0.5337 0.8457
vn -0.0000 1.0000 -0.0000
vt 0.375000 0.000000
vt 0.625000 0.000000
vt 0.625000 0.250000
vt 0.375000 0.250000
vt 0.625000 0.500000
vt 0.375000 0.500000
vt 0.625000 0.750000
vt 0.375000 0.750000
vt 0.625000 1.000000
vt 0.375000 1.000000
vt 0.139322 0.514322
vt 0.360678 0.514322
vt 0.360678 0.735678
vt 0.139322 0.735678
vt 0.125000 0.750000
vt 0.125000 0.500000
s 0
f 10/1/1 2/2/1 4/3/1 9/4/1
f 9/4/2 4/3/2 8/5/2 11/6/2
f 11/6/3 8/5/3 6/7/3 12/8/3
f 12/8/4 6/7/4 2/9/4 10/10/4
f 3/11/5 7/12/5 5/13/5 1/14/5
f 3/11/6 1/14/6 10/15/6 9/16/6
f 7/12/7 3/11/7 9/16/7 11/6/7
f 5/13/8 7/12/8 11/6/8 12/8/8
f 1/14/9 5/13/9 12/8/9 10/15/9
f 2/9/10 6/7/10 8/5/10 4/3/10
