# Blender 3.6.2
# www.blender.org
mtllib ConvexHullFiole.mtl
o Cylinder
v 0.000000 -1.000000 -1.000000
v 0.195090 -1.000000 -0.980785
v 0.382683 -1.000000 -0.923880
v 0.555570 -1.000000 -0.831470
v 0.707107 -1.000000 -0.707107
v 0.831470 -1.000000 -0.555570
v 0.923880 -1.000000 -0.382683
v 0.980785 -1.000000 -0.195090
v 1.000000 -1.000000 0.000000
v 0.980785 -1.000000 0.195090
v 0.923880 -1.000000 0.382683
v 0.831470 -1.000000 0.555570
v 0.707107 -1.000000 0.707107
v 0.555570 -1.000000 0.831470
v 0.382683 -1.000000 0.923880
v 0.195090 -1.000000 0.980785
v 0.000000 -1.000000 1.000000
v -0.195090 -1.000000 0.980785
v -0.382683 -1.000000 0.923880
v -0.555570 -1.000000 0.831470
v -0.707107 -1.000000 0.707107
v -0.831470 -1.000000 0.555570
v -0.923880 -1.000000 0.382683
v -0.980785 -1.000000 0.195090
v -1.000000 -1.000000 0.000000
v -0.980785 -1.000000 -0.195090
v -0.923880 -1.000000 -0.382683
v -0.831470 -1.000000 -0.555570
v -0.707107 -1.000000 -0.707107
v -0.555570 -1.000000 -0.831470
v -0.382683 -1.000000 -0.923880
v -0.195090 -1.000000 -0.980785
v 0.056258 1.701859 -0.282826
v -0.000000 1.701859 -0.288367
v 0.110353 1.701859 -0.266417
v 0.160208 1.701859 -0.239769
v 0.203906 1.701859 -0.203906
v 0.239769 1.701859 -0.160208
v 0.266417 1.701859 -0.110353
v 0.282826 1.701859 -0.056258
v 0.288367 1.701859 0.000000
v 0.282826 1.701859 0.056258
v 0.266417 1.701859 0.110353
v 0.239769 1.701859 0.160208
v 0.203906 1.701859 0.203906
v 0.160208 1.701859 0.239769
v 0.110353 1.701859 0.266417
v 0.056258 1.701859 0.282826
v -0.000000 1.701859 0.288367
v -0.056258 1.701859 0.282826
v -0.110353 1.701859 0.266417
v -0.160208 1.701859 0.239769
v -0.203906 1.701859 0.203906
v -0.239769 1.701859 0.160208
v -0.266417 1.701859 0.110353
v -0.282826 1.701859 0.056258
v -0.288367 1.701859 0.000000
v -0.282826 1.701859 -0.056258
v -0.266417 1.701859 -0.110353
v -0.239769 1.701859 -0.160208
v -0.203906 1.701859 -0.203906
v -0.160208 1.701859 -0.239769
v -0.110353 1.701859 -0.266417
v -0.056258 1.701859 -0.282826
v -0.000000 -0.861845 -1.115457
v -0.000000 -0.674803 -1.128666
v 0.220192 -0.674803 -1.106979
v 0.217615 -0.861845 -1.094023
v 0.431922 -0.674803 -1.042751
v 0.426867 -0.861845 -1.030548
v 0.627053 -0.674803 -0.938451
v 0.619715 -0.861845 -0.927468
v 0.798087 -0.674803 -0.798087
v 0.788747 -0.861845 -0.788747
v 0.938451 -0.674803 -0.627053
v 0.927468 -0.861845 -0.619715
v 1.042751 -0.674803 -0.431922
v 1.030548 -0.861845 -0.426867
v 1.106979 -0.674803 -0.220192
v 1.094023 -0.861845 -0.217615
v 1.128666 -0.674803 0.000000
v 1.115457 -0.861845 0.000000
v 1.106979 -0.674803 0.220192
v 1.094023 -0.861845 0.217615
v 1.042751 -0.674803 0.431922
v 1.030548 -0.861845 0.426867
v 0.938451 -0.674803 0.627053
v 0.927468 -0.861845 0.619715
v 0.798087 -0.674803 0.798087
v 0.788747 -0.861845 0.788747
v 0.627053 -0.674803 0.938451
v 0.619715 -0.861845 0.927468
v 0.431922 -0.674803 1.042751
v 0.426867 -0.861845 1.030548
v 0.220192 -0.674803 1.106979
v 0.217615 -0.861845 1.094023
v -0.000000 -0.674803 1.128666
v -0.000000 -0.861845 1.115457
v -0.220192 -0.674803 1.106979
v -0.217615 -0.861845 1.094023
v -0.431922 -0.674803 1.042751
v -0.426867 -0.861845 1.030548
v -0.627053 -0.674803 0.938451
v -0.619715 -0.861845 0.927468
v -0.798087 -0.674803 0.798087
v -0.788747 -0.861845 0.788747
v -0.938451 -0.674803 0.627053
v -0.927468 -0.861845 0.619715
v -1.042751 -0.674803 0.431922
v -1.030548 -0.861845 0.426867
v -1.106979 -0.674803 0.220192
v -1.094023 -0.861845 0.217615
v -1.128666 -0.674803 0.000000
v -1.115457 -0.861845 0.000000
v -1.106979 -0.674803 -0.220192
v -1.094023 -0.861845 -0.217615
v -1.042751 -0.674803 -0.431922
v -1.030548 -0.861845 -0.426867
v -0.938451 -0.674803 -0.627053
v -0.927468 -0.861845 -0.619715
v -0.798087 -0.674803 -0.798087
v -0.788747 -0.861845 -0.788747
v -0.627053 -0.674803 -0.938451
v -0.619715 -0.861845 -0.927468
v -0.431922 -0.674803 -1.042751
v -0.426867 -0.861845 -1.030548
v -0.220192 -0.674803 -1.106979
v -0.217615 -0.861845 -1.094023
vn -0.6781 -0.6394 -0.3624
vn -0.3624 -0.6394 0.6781
vn -0.4702 -0.0701 -0.8798
vn -0.4447 0.3319 -0.8319
vn 0.0754 -0.6394 -0.7651
vn 0.7711 -0.0701 -0.6328
vn 0.5943 -0.6394 0.4878
vn 0.4878 -0.6394 -0.5943
vn 0.7711 -0.0701 0.6328
vn -0.7292 0.3319 0.5984
vn -0.9027 0.3319 0.2738
vn -0.7711 -0.0701 -0.6328
vn 0.7357 -0.6394 -0.2232
vn 0.5943 -0.6394 -0.4878
vn -0.7711 -0.0701 0.6328
vn -0.0000 -1.0000 -0.0000
vn -0.7651 -0.6394 0.0754
vn 0.8319 0.3319 0.4447
vn 0.4702 -0.0701 -0.8798
vn -0.2896 -0.0701 -0.9546
vn -0.2738 0.3319 -0.9027
vn -0.7357 -0.6394 -0.2232
vn 0.9027 0.3319 0.2738
vn -0.9927 -0.0701 -0.0978
vn -0.7651 -0.6394 -0.0754
vn 0.7651 -0.6394 0.0754
vn 0.5984 0.3319 0.7292
vn -0.9027 0.3319 -0.2738
vn 0.2232 -0.6394 -0.7357
vn 0.9927 -0.0701 0.0978
vn 0.8798 -0.0701 0.4702
vn -0.8319 0.3319 -0.4447
vn -0.0000 1.0000 -0.0000
vn -0.8798 -0.0701 0.4702
vn 0.4447 0.3319 0.8319
vn -0.3624 -0.6394 -0.6781
vn -0.7292 0.3319 -0.5984
vn -0.2738 0.3319 0.9027
vn -0.9388 0.3319 -0.0925
vn -0.9546 -0.0701 -0.2896
vn -0.2232 -0.6394 -0.7357
vn -0.0754 -0.6394 -0.7651
vn 0.0754 -0.6394 0.7651
vn -0.7357 -0.6394 0.2232
vn -0.9546 -0.0701 0.2896
vn 0.9027 0.3319 -0.2738
vn -0.0925 0.3319 0.9388
vn 0.2738 0.3319 0.9027
vn -0.9927 -0.0701 0.0978
vn 0.0978 -0.0701 0.9927
vn 0.9546 -0.0701 0.2896
vn -0.4702 -0.0701 0.8798
vn -0.5943 -0.6394 0.4878
vn -0.0978 -0.0701 0.9927
vn -0.8319 0.3319 0.4447
vn 0.2738 0.3319 -0.9027
vn 0.8798 -0.0701 -0.4702
vn 0.7357 -0.6394 0.2232
vn 0.2232 -0.6394 0.7357
vn 0.2896 -0.0701 -0.9546
vn -0.9388 0.3319 0.0925
vn 0.0925 0.3319 -0.9388
vn 0.4702 -0.0701 0.8798
vn -0.6781 -0.6394 0.3624
vn 0.3624 -0.6394 -0.6781
vn 0.4447 0.3319 -0.8319
vn 0.0925 0.3319 0.9388
vn 0.7292 0.3319 0.5984
vn 0.6328 -0.0701 0.7711
vn -0.4878 -0.6394 -0.5943
vn 0.4878 -0.6394 0.5943
vn 0.2896 -0.0701 0.9546
vn 0.7292 0.3319 -0.5984
vn -0.5984 0.3319 -0.7292
vn -0.2896 -0.0701 0.9546
vn -0.5943 -0.6394 -0.4878
vn -0.4878 -0.6394 0.5943
vn -0.6328 -0.0701 -0.7711
vn 0.5984 0.3319 -0.7292
vn 0.8319 0.3319 -0.4447
vn 0.9927 -0.0701 -0.0978
vn 0.6781 -0.6394 0.3624
vn 0.3624 -0.6394 0.6781
vn 0.6328 -0.0701 -0.7711
vn -0.4447 0.3319 0.8319
vn -0.5984 0.3319 0.7292
vn 0.9546 -0.0701 -0.2896
vn 0.6781 -0.6394 -0.3624
vn -0.2232 -0.6394 0.7357
vn -0.8798 -0.0701 -0.4702
vn -0.0925 0.3319 -0.9388
vn 0.9388 0.3319 -0.0925
vn -0.0978 -0.0701 -0.9927
vn -0.0754 -0.6394 0.7651
vn 0.7651 -0.6394 -0.0754
vn 0.0978 -0.0701 -0.9927
vn 0.9388 0.3319 0.0925
vn -0.6328 -0.0701 0.7711
vt 0.000000 0.000000
s 0
f 27/1/1 118/1/1 120/1/1 28/1/1
f 104/1/2 20/1/2 19/1/2 102/1/2
f 124/1/3 123/1/3 125/1/3 126/1/3
f 62/1/4 63/1/4 125/1/4 123/1/4
f 1/1/5 65/1/5 68/1/5 2/1/5
f 74/1/6 73/1/6 75/1/6 76/1/6
f 13/1/7 12/1/7 88/1/7 90/1/7
f 72/1/8 74/1/8 5/1/8 4/1/8
f 90/1/9 88/1/9 87/1/9 89/1/9
f 54/1/10 107/1/10 105/1/10 53/1/10
f 111/1/11 109/1/11 55/1/11 56/1/11
f 119/1/12 121/1/12 122/1/12 120/1/12
f 7/1/13 78/1/13 80/1/13 8/1/13
f 5/1/14 74/1/14 76/1/14 6/1/14
f 107/1/15 108/1/15 106/1/15 105/1/15
f 12/1/16 8/1/16 9/1/16
f 25/1/17 24/1/17 112/1/17 114/1/17
f 44/1/18 87/1/18 85/1/18 43/1/18
f 69/1/19 71/1/19 72/1/19 70/1/19
f 125/1/20 127/1/20 128/1/20 126/1/20
f 63/1/21 64/1/21 127/1/21 125/1/21
f 116/1/22 118/1/22 27/1/22 26/1/22
f 43/1/23 85/1/23 83/1/23 42/1/23
f 113/1/24 115/1/24 116/1/24 114/1/24
f 25/1/25 114/1/25 116/1/25 26/1/25
f 9/1/26 82/1/26 84/1/26 10/1/26
f 46/1/27 91/1/27 89/1/27 45/1/27
f 115/1/28 58/1/28 59/1/28 117/1/28
f 68/1/29 70/1/29 3/1/29 2/1/29
f 84/1/30 82/1/30 81/1/30 83/1/30
f 88/1/31 86/1/31 85/1/31 87/1/31
f 117/1/32 59/1/32 60/1/32 119/1/32
f 40/1/33 62/1/33 61/1/33
f 12/1/16 6/1/16 7/1/16
f 40/1/33 63/1/33 62/1/33
f 109/1/34 110/1/34 108/1/34 107/1/34
f 12/1/16 4/1/16 5/1/16
f 93/1/35 91/1/35 46/1/35 47/1/35
f 12/1/16 2/1/16 3/1/16
f 40/1/33 43/1/33 42/1/33
f 12/1/16 32/1/16 1/1/16
f 40/1/33 45/1/33 44/1/33
f 12/1/16 30/1/16 31/1/16
f 40/1/33 47/1/33 46/1/33
f 12/1/16 28/1/16 29/1/16
f 40/1/33 49/1/33 48/1/33
f 12/1/16 26/1/16 27/1/16
f 40/1/33 51/1/33 50/1/33
f 12/1/16 24/1/16 25/1/16
f 40/1/33 53/1/33 52/1/33
f 12/1/16 22/1/16 23/1/16
f 40/1/33 55/1/33 54/1/33
f 12/1/16 20/1/16 21/1/16
f 124/1/36 126/1/36 31/1/36 30/1/36
f 40/1/33 57/1/33 56/1/33
f 12/1/16 18/1/16 19/1/16
f 60/1/37 61/1/37 121/1/37 119/1/37
f 40/1/33 59/1/33 58/1/33
f 12/1/16 16/1/16 17/1/16
f 12/1/16 10/1/16 11/1/16
f 40/1/33 61/1/33 60/1/33
f 12/1/16 14/1/16 15/1/16
f 51/1/38 101/1/38 99/1/38 50/1/38
f 12/1/16 9/1/16 10/1/16
f 12/1/16 7/1/16 8/1/16
f 12/1/16 5/1/16 6/1/16
f 12/1/16 3/1/16 4/1/16
f 12/1/16 1/1/16 2/1/16
f 12/1/16 31/1/16 32/1/16
f 12/1/16 29/1/16 30/1/16
f 12/1/16 27/1/16 28/1/16
f 12/1/16 25/1/16 26/1/16
f 12/1/16 23/1/16 24/1/16
f 12/1/16 21/1/16 22/1/16
f 12/1/16 19/1/16 20/1/16
f 12/1/16 17/1/16 18/1/16
f 12/1/16 15/1/16 16/1/16
f 12/1/16 13/1/16 14/1/16
f 40/1/33 42/1/33 41/1/33
f 40/1/33 44/1/33 43/1/33
f 40/1/33 46/1/33 45/1/33
f 40/1/33 48/1/33 47/1/33
f 40/1/33 50/1/33 49/1/33
f 40/1/33 52/1/33 51/1/33
f 40/1/33 54/1/33 53/1/33
f 40/1/33 56/1/33 55/1/33
f 40/1/33 58/1/33 57/1/33
f 40/1/33 60/1/33 59/1/33
f 40/1/33 34/1/33 64/1/33
f 40/1/33 64/1/33 63/1/33
f 40/1/33 35/1/33 33/1/33
f 40/1/33 36/1/33 35/1/33
f 40/1/33 37/1/33 36/1/33
f 40/1/33 38/1/33 37/1/33
f 40/1/33 39/1/33 38/1/33
f 57/1/39 58/1/39 115/1/39 113/1/39
f 116/1/40 115/1/40 117/1/40 118/1/40
f 31/1/41 126/1/41 128/1/41 32/1/41
f 128/1/42 65/1/42 1/1/42 32/1/42
f 17/1/43 16/1/43 96/1/43 98/1/43
f 112/1/44 24/1/44 23/1/44 110/1/44
f 112/1/45 110/1/45 109/1/45 111/1/45
f 39/1/46 40/1/46 79/1/46 77/1/46
f 99/1/47 97/1/47 49/1/47 50/1/47
f 95/1/48 93/1/48 47/1/48 48/1/48
f 113/1/49 114/1/49 112/1/49 111/1/49
f 97/1/50 98/1/50 96/1/50 95/1/50
f 40/1/33 33/1/33 34/1/33
f 85/1/51 86/1/51 84/1/51 83/1/51
f 104/1/52 102/1/52 101/1/52 103/1/52
f 108/1/53 22/1/53 21/1/53 106/1/53
f 100/1/54 98/1/54 97/1/54 99/1/54
f 109/1/55 107/1/55 54/1/55 55/1/55
f 67/1/56 33/1/56 35/1/56 69/1/56
f 76/1/57 75/1/57 77/1/57 78/1/57
f 11/1/58 10/1/58 84/1/58 86/1/58
f 96/1/59 16/1/59 15/1/59 94/1/59
f 68/1/60 67/1/60 69/1/60 70/1/60
f 57/1/61 113/1/61 111/1/61 56/1/61
f 34/1/62 33/1/62 67/1/62 66/1/62
f 93/1/63 94/1/63 92/1/63 91/1/63
f 23/1/64 22/1/64 108/1/64 110/1/64
f 3/1/65 70/1/65 72/1/65 4/1/65
f 69/1/66 35/1/66 36/1/66 71/1/66
f 49/1/67 97/1/67 95/1/67 48/1/67
f 89/1/68 87/1/68 44/1/68 45/1/68
f 91/1/69 92/1/69 90/1/69 89/1/69
f 29/1/70 122/1/70 124/1/70 30/1/70
f 92/1/71 14/1/71 13/1/71 90/1/71
f 96/1/72 94/1/72 93/1/72 95/1/72
f 73/1/73 37/1/73 38/1/73 75/1/73
f 121/1/74 61/1/74 62/1/74 123/1/74
f 101/1/75 102/1/75 100/1/75 99/1/75
f 120/1/76 122/1/76 29/1/76 28/1/76
f 21/1/77 20/1/77 104/1/77 106/1/77
f 122/1/78 121/1/78 123/1/78 124/1/78
f 36/1/79 37/1/79 73/1/79 71/1/79
f 38/1/80 39/1/80 77/1/80 75/1/80
f 80/1/81 79/1/81 81/1/81 82/1/81
f 88/1/82 12/1/82 11/1/82 86/1/82
f 15/1/83 14/1/83 92/1/83 94/1/83
f 71/1/84 73/1/84 74/1/84 72/1/84
f 52/1/85 103/1/85 101/1/85 51/1/85
f 105/1/86 103/1/86 52/1/86 53/1/86
f 77/1/87 79/1/87 80/1/87 78/1/87
f 76/1/88 78/1/88 7/1/88 6/1/88
f 19/1/89 18/1/89 100/1/89 102/1/89
f 117/1/90 119/1/90 120/1/90 118/1/90
f 127/1/91 64/1/91 34/1/91 66/1/91
f 40/1/92 41/1/92 81/1/92 79/1/92
f 128/1/93 127/1/93 66/1/93 65/1/93
f 100/1/94 18/1/94 17/1/94 98/1/94
f 9/1/95 8/1/95 80/1/95 82/1/95
f 66/1/96 67/1/96 68/1/96 65/1/96
f 41/1/97 42/1/97 83/1/97 81/1/97
f 106/1/98 104/1/98 103/1/98 105/1/98
