# Blender 3.6.2
# www.blender.org
mtllib Fiole.mtl
o Cylinder
v 0.000000 -1.000000 -1.000000
v 0.195090 -1.000000 -0.980785
v 0.382683 -1.000000 -0.923880
v 0.555570 -1.000000 -0.831470
v 0.707107 -1.000000 -0.707107
v 0.831470 -1.000000 -0.555570
v 0.923880 -1.000000 -0.382683
v 0.980785 -1.000000 -0.195090
v 1.000000 -1.000000 0.000000
v 0.980785 -1.000000 0.195090
v 0.923880 -1.000000 0.382683
v 0.831470 -1.000000 0.555570
v 0.707107 -1.000000 0.707107
v 0.555570 -1.000000 0.831470
v 0.382683 -1.000000 0.923880
v 0.195090 -1.000000 0.980785
v 0.000000 -1.000000 1.000000
v -0.195090 -1.000000 0.980785
v -0.382683 -1.000000 0.923880
v -0.555570 -1.000000 0.831470
v -0.707107 -1.000000 0.707107
v -0.831470 -1.000000 0.555570
v -0.923880 -1.000000 0.382683
v -0.980785 -1.000000 0.195090
v -1.000000 -1.000000 0.000000
v -0.980785 -1.000000 -0.195090
v -0.923880 -1.000000 -0.382683
v -0.831470 -1.000000 -0.555570
v -0.707107 -1.000000 -0.707107
v -0.555570 -1.000000 -0.831470
v -0.382683 -1.000000 -0.923880
v -0.195090 -1.000000 -0.980785
v 0.056258 1.701859 -0.282826
v -0.000000 1.701859 -0.288367
v 0.110353 1.701859 -0.266417
v 0.160208 1.701859 -0.239769
v 0.203906 1.701859 -0.203906
v 0.239769 1.701859 -0.160208
v 0.266417 1.701859 -0.110353
v 0.282826 1.701859 -0.056258
v 0.288367 1.701859 0.000000
v 0.282826 1.701859 0.056258
v 0.266417 1.701859 0.110353
v 0.239769 1.701859 0.160208
v 0.203906 1.701859 0.203906
v 0.160208 1.701859 0.239769
v 0.110353 1.701859 0.266417
v 0.056258 1.701859 0.282826
v -0.000000 1.701859 0.288367
v -0.056258 1.701859 0.282826
v -0.110353 1.701859 0.266417
v -0.160208 1.701859 0.239769
v -0.203906 1.701859 0.203906
v -0.239769 1.701859 0.160208
v -0.266417 1.701859 0.110353
v -0.282826 1.701859 0.056258
v -0.288367 1.701859 0.000000
v -0.282826 1.701859 -0.056258
v -0.266417 1.701859 -0.110353
v -0.239769 1.701859 -0.160208
v -0.203906 1.701859 -0.203906
v -0.160208 1.701859 -0.239769
v -0.110353 1.701859 -0.266417
v -0.056258 1.701859 -0.282826
v -0.000000 -0.861845 -1.115457
v -0.000000 -0.674803 -1.128666
v 0.220192 -0.674803 -1.106979
v 0.217615 -0.861845 -1.094023
v 0.431922 -0.674803 -1.042751
v 0.426867 -0.861845 -1.030548
v 0.627053 -0.674803 -0.938451
v 0.619715 -0.861845 -0.927468
v 0.798087 -0.674803 -0.798087
v 0.788747 -0.861845 -0.788747
v 0.938451 -0.674803 -0.627053
v 0.927468 -0.861845 -0.619715
v 1.042751 -0.674803 -0.431922
v 1.030548 -0.861845 -0.426867
v 1.106979 -0.674803 -0.220192
v 1.094023 -0.861845 -0.217615
v 1.128666 -0.674803 0.000000
v 1.115457 -0.861845 0.000000
v 1.106979 -0.674803 0.220192
v 1.094023 -0.861845 0.217615
v 1.042751 -0.674803 0.431922
v 1.030548 -0.861845 0.426867
v 0.938451 -0.674803 0.627053
v 0.927468 -0.861845 0.619715
v 0.798087 -0.674803 0.798087
v 0.788747 -0.861845 0.788747
v 0.627053 -0.674803 0.938451
v 0.619715 -0.861845 0.927468
v 0.431922 -0.674803 1.042751
v 0.426867 -0.861845 1.030548
v 0.220192 -0.674803 1.106979
v 0.217615 -0.861845 1.094023
v -0.000000 -0.674803 1.128666
v -0.000000 -0.861845 1.115457
v -0.220192 -0.674803 1.106979
v -0.217615 -0.861845 1.094023
v -0.431922 -0.674803 1.042751
v -0.426867 -0.861845 1.030548
v -0.627053 -0.674803 0.938451
v -0.619715 -0.861845 0.927468
v -0.798087 -0.674803 0.798087
v -0.788747 -0.861845 0.788747
v -0.938451 -0.674803 0.627053
v -0.927468 -0.861845 0.619715
v -1.042751 -0.674803 0.431922
v -1.030548 -0.861845 0.426867
v -1.106979 -0.674803 0.220192
v -1.094023 -0.861845 0.217615
v -1.128666 -0.674803 0.000000
v -1.115457 -0.861845 0.000000
v -1.106979 -0.674803 -0.220192
v -1.094023 -0.861845 -0.217615
v -1.042751 -0.674803 -0.431922
v -1.030548 -0.861845 -0.426867
v -0.938451 -0.674803 -0.627053
v -0.927468 -0.861845 -0.619715
v -0.798087 -0.674803 -0.798087
v -0.788747 -0.861845 -0.788747
v -0.627053 -0.674803 -0.938451
v -0.619715 -0.861845 -0.927468
v -0.431922 -0.674803 -1.042751
v -0.426867 -0.861845 -1.030548
v -0.220192 -0.674803 -1.106979
v -0.217615 -0.861845 -1.094023
v 0.056258 0.712657 -0.282826
v 0.059755 0.649847 -0.300406
v 0.000000 0.649847 -0.306292
v 0.000000 0.712657 -0.288367
v 0.110353 0.712657 -0.266417
v 0.117213 0.649847 -0.282976
v 0.160208 0.712657 -0.239769
v 0.170166 0.649847 -0.254672
v 0.203906 0.712657 -0.203906
v 0.216581 0.649847 -0.216581
v 0.239769 0.712657 -0.160208
v 0.254672 0.649847 -0.170166
v 0.266417 0.712657 -0.110353
v 0.282976 0.649847 -0.117213
v 0.282826 0.712657 -0.056258
v 0.300406 0.649847 -0.059755
v 0.288367 0.712657 0.000000
v 0.306292 0.649847 0.000000
v 0.282826 0.712657 0.056258
v 0.300406 0.649847 0.059755
v 0.266417 0.712657 0.110353
v 0.282976 0.649847 0.117213
v 0.239769 0.712657 0.160208
v 0.254672 0.649847 0.170166
v 0.203906 0.712657 0.203906
v 0.216581 0.649847 0.216581
v 0.160208 0.712657 0.239769
v 0.170166 0.649847 0.254672
v 0.110353 0.712657 0.266417
v 0.117213 0.649847 0.282976
v 0.056258 0.712657 0.282826
v 0.059755 0.649847 0.300406
v 0.000000 0.712657 0.288367
v 0.000000 0.649847 0.306292
v -0.056258 0.712657 0.282826
v -0.059755 0.649847 0.300406
v -0.110353 0.712657 0.266417
v -0.117213 0.649847 0.282976
v -0.160208 0.712657 0.239769
v -0.170166 0.649847 0.254672
v -0.203906 0.712657 0.203906
v -0.216581 0.649847 0.216581
v -0.239769 0.712657 0.160208
v -0.254672 0.649847 0.170166
v -0.266417 0.712657 0.110353
v -0.282976 0.649847 0.117213
v -0.282826 0.712657 0.056258
v -0.300406 0.649847 0.059755
v -0.288367 0.712657 0.000000
v -0.306292 0.649847 0.000000
v -0.282826 0.712657 -0.056258
v -0.300406 0.649847 -0.059755
v -0.266417 0.712657 -0.110353
v -0.282976 0.649847 -0.117213
v -0.239769 0.712657 -0.160208
v -0.254672 0.649847 -0.170166
v -0.203906 0.712657 -0.203906
v -0.216581 0.649847 -0.216581
v -0.160208 0.712657 -0.239769
v -0.170166 0.649847 -0.254672
v -0.110353 0.712657 -0.266417
v -0.117213 0.649847 -0.282976
v -0.056258 0.712657 -0.282826
v -0.059755 0.649847 -0.300406
vn -0.0754 -0.6394 -0.7651
vn 0.2903 -0.0000 -0.9569
vn 0.6344 -0.0000 -0.7730
vn 0.7730 -0.0000 -0.6344
vn 0.8819 -0.0000 -0.4714
vn 0.9569 -0.0000 -0.2903
vn 0.9952 -0.0000 -0.0980
vn 0.9952 -0.0000 0.0980
vn 0.9569 -0.0000 0.2903
vn 0.8819 -0.0000 0.4714
vn 0.7730 -0.0000 0.6344
vn 0.6344 -0.0000 0.7730
vn 0.4714 -0.0000 0.8819
vn 0.2903 -0.0000 0.9569
vn 0.0980 -0.0000 0.9952
vn -0.0980 -0.0000 0.9952
vn -0.2903 -0.0000 0.9569
vn -0.4714 -0.0000 0.8819
vn -0.6344 -0.0000 0.7730
vn -0.7730 -0.0000 0.6344
vn -0.8819 -0.0000 0.4714
vn -0.9569 -0.0000 0.2903
vn -0.9952 -0.0000 0.0980
vn -0.9952 -0.0000 -0.0980
vn -0.9569 -0.0000 -0.2903
vn -0.8819 -0.0000 -0.4714
vn -0.7730 -0.0000 -0.6344
vn -0.6344 -0.0000 -0.7730
vn -0.4714 -0.0000 -0.8819
vn -0.2903 -0.0000 -0.9569
vn 0.4878 -0.6394 -0.5943
vn 0.4714 -0.0000 -0.8819
vn 0.5397 0.5256 -0.6576
vn 0.4878 -0.6394 0.5943
vn -0.6781 -0.6394 0.3624
vn -0.2232 -0.6394 -0.7357
vn 0.7651 -0.6394 0.0754
vn -0.2232 -0.6394 0.7357
vn -0.6781 -0.6394 -0.3624
vn 0.5943 -0.6394 -0.4878
vn 0.3624 -0.6394 0.6781
vn -0.7357 -0.6394 0.2232
vn 0.7357 -0.6394 0.2232
vn -0.3624 -0.6394 0.6781
vn -0.5943 -0.6394 -0.4878
vn 0.6781 -0.6394 -0.3624
vn 0.2232 -0.6394 0.7357
vn -0.7651 -0.6394 0.0754
vn 0.0754 -0.6394 -0.7651
vn 0.2232 -0.6394 -0.7357
vn 0.6781 -0.6394 0.3624
vn -0.4878 -0.6394 0.5943
vn -0.4878 -0.6394 -0.5943
vn 0.7357 -0.6394 -0.2232
vn 0.0754 -0.6394 0.7651
vn -0.7651 -0.6394 -0.0754
vn 0.3624 -0.6394 -0.6781
vn 0.5943 -0.6394 0.4878
vn -0.5943 -0.6394 0.4878
vn -0.3624 -0.6394 -0.6781
vn 0.7651 -0.6394 -0.0754
vn -0.0754 -0.6394 0.7651
vn -0.7357 -0.6394 -0.2232
vn -0.2470 0.5256 -0.8141
vn -0.2470 0.5256 0.8141
vn 0.6576 0.5256 -0.5397
vn -0.0834 0.5256 -0.8466
vn -0.4010 0.5256 0.7503
vn 0.7503 0.5256 -0.4010
vn -0.5397 0.5256 0.6576
vn 0.8141 0.5256 -0.2470
vn -0.6576 0.5256 0.5397
vn 0.8466 0.5256 -0.0834
vn -0.7503 0.5256 0.4010
vn 0.8466 0.5256 0.0834
vn -0.8141 0.5256 0.2470
vn 0.8141 0.5256 0.2470
vn -0.8466 0.5256 0.0834
vn 0.7503 0.5256 0.4010
vn -0.8466 0.5256 -0.0834
vn 0.6576 0.5256 0.5397
vn -0.8141 0.5256 -0.2470
vn 0.5397 0.5256 0.6576
vn -0.7503 0.5256 -0.4010
vn 0.4010 0.5256 0.7503
vn 0.2470 0.5256 -0.8141
vn -0.6576 0.5256 -0.5397
vn 0.2470 0.5256 0.8141
vn -0.0980 -0.0000 -0.9952
vn -0.5397 0.5256 -0.6576
vn 0.0834 0.5256 0.8466
vn 0.4010 0.5256 -0.7503
vn -0.4010 0.5256 -0.7503
vn -0.0834 0.5256 0.8466
vn -0.0000 -1.0000 -0.0000
vn 0.0978 -0.0701 -0.9927
vn 0.2896 -0.0701 -0.9546
vn 0.4702 -0.0701 -0.8798
vn 0.6328 -0.0701 -0.7711
vn 0.7711 -0.0701 -0.6328
vn 0.8798 -0.0701 -0.4702
vn 0.9546 -0.0701 -0.2896
vn 0.9927 -0.0701 -0.0978
vn 0.9927 -0.0701 0.0978
vn 0.9546 -0.0701 0.2896
vn 0.8798 -0.0701 0.4702
vn 0.7711 -0.0701 0.6328
vn 0.6328 -0.0701 0.7711
vn 0.4702 -0.0701 0.8798
vn 0.2896 -0.0701 0.9546
vn 0.0978 -0.0701 0.9927
vn -0.0978 -0.0701 0.9927
vn -0.2896 -0.0701 0.9546
vn -0.4702 -0.0701 0.8798
vn -0.6328 -0.0701 0.7711
vn -0.7711 -0.0701 0.6328
vn -0.8798 -0.0701 0.4702
vn -0.9546 -0.0701 0.2896
vn -0.9927 -0.0701 0.0978
vn -0.9927 -0.0701 -0.0978
vn -0.9546 -0.0701 -0.2896
vn -0.8798 -0.0701 -0.4702
vn -0.7711 -0.0701 -0.6328
vn -0.6328 -0.0701 -0.7711
vn -0.4702 -0.0701 -0.8798
vn -0.2896 -0.0701 -0.9546
vn -0.0978 -0.0701 -0.9927
vn 0.0980 -0.0000 -0.9952
vn 0.0943 0.2732 -0.9573
vn 0.2792 0.2732 -0.9205
vn 0.4535 0.2732 -0.8484
vn 0.6103 0.2732 -0.7436
vn 0.7436 0.2732 -0.6103
vn 0.8484 0.2732 -0.4535
vn 0.9205 0.2732 -0.2792
vn 0.9573 0.2732 -0.0943
vn 0.9573 0.2732 0.0943
vn 0.9205 0.2732 0.2792
vn 0.8484 0.2732 0.4535
vn 0.7436 0.2732 0.6103
vn 0.6103 0.2732 0.7436
vn 0.4535 0.2732 0.8484
vn 0.2792 0.2732 0.9205
vn 0.0943 0.2732 0.9573
vn -0.0943 0.2732 0.9573
vn -0.2792 0.2732 0.9205
vn -0.4535 0.2732 0.8484
vn -0.6103 0.2732 0.7436
vn -0.7436 0.2732 0.6103
vn -0.8484 0.2732 0.4535
vn -0.9205 0.2732 0.2792
vn -0.9573 0.2732 0.0943
vn -0.9573 0.2732 -0.0943
vn -0.9205 0.2732 -0.2792
vn -0.8484 0.2732 -0.4535
vn -0.7436 0.2732 -0.6103
vn -0.6103 0.2732 -0.7436
vn -0.4535 0.2732 -0.8484
vn -0.2792 0.2732 -0.9205
vn -0.0943 0.2732 -0.9573
vn 0.0834 0.5256 -0.8466
vn -0.0000 1.0000 -0.0000
vt 0.031250 0.500000
vt 0.031250 0.804376
vt 0.000000 0.804376
vt 0.000000 0.500000
vt 0.937500 1.000000
vt 0.968750 1.000000
vt 0.968750 1.000000
vt 0.875000 1.000000
vt 0.906250 1.000000
vt 0.843750 1.000000
vt 0.812500 1.000000
vt 0.843750 1.000000
vt 0.781250 1.000000
vt 0.750000 1.000000
vt 0.718750 1.000000
vt 0.687500 1.000000
vt 0.718750 1.000000
vt 0.656250 1.000000
vt 0.687500 1.000000
vt 0.625000 1.000000
vt 0.593750 1.000000
vt 0.562500 1.000000
vt 0.531250 1.000000
vt 0.500000 1.000000
vt 0.468750 1.000000
vt 0.437500 1.000000
vt 0.468750 1.000000
vt 0.406250 1.000000
vt 0.375000 1.000000
vt 0.343750 1.000000
vt 0.312500 1.000000
vt 0.343750 1.000000
vt 0.281250 1.000000
vt 0.250000 1.000000
vt 0.218750 1.000000
vt 0.187500 1.000000
vt 0.156250 1.000000
vt 0.125000 1.000000
vt 0.093750 1.000000
vt 0.062500 1.000000
vt 0.031250 1.000000
vt 0.906250 0.500000
vt 0.906250 0.804376
vt 0.875000 0.804376
vt 0.875000 0.500000
vt 0.937500 1.000000
vt 0.625000 0.500000
vt 0.625000 0.804376
vt 0.593750 0.804376
vt 0.593750 0.500000
vt 0.343750 0.500000
vt 0.343750 0.804376
vt 0.312500 0.804376
vt 0.312500 0.500000
vt 0.062500 0.500000
vt 0.062500 0.804376
vt 0.031250 0.804376
vt 0.750000 0.500000
vt 0.750000 0.804376
vt 0.718750 0.804376
vt 0.718750 0.500000
vt 0.468750 0.500000
vt 0.468750 0.804376
vt 0.437500 0.804376
vt 0.437500 0.500000
vt 0.187500 0.500000
vt 0.187500 0.804376
vt 0.156250 0.804376
vt 0.156250 0.500000
vt 0.843750 0.804376
vt 0.843750 0.500000
vt 0.593750 0.804376
vt 0.562500 0.804376
vt 0.562500 0.500000
vt 0.281250 0.804376
vt 0.281250 0.500000
vt 0.718750 0.804376
vt 0.687500 0.804376
vt 0.687500 0.500000
vt 0.437500 0.804376
vt 0.406250 0.804376
vt 0.406250 0.500000
vt 0.156250 0.804376
vt 0.125000 0.804376
vt 0.125000 0.500000
vt 0.812500 0.804376
vt 0.812500 0.500000
vt 0.562500 0.804376
vt 0.531250 0.804376
vt 0.531250 0.500000
vt 0.281250 0.804376
vt 0.250000 0.804376
vt 0.250000 0.500000
vt 1.000000 0.500000
vt 1.000000 0.804376
vt 0.968750 0.804376
vt 0.968750 0.500000
vt 0.968750 0.804376
vt 0.937500 0.804376
vt 0.937500 0.500000
vt 0.656250 0.804376
vt 0.656250 0.500000
vt 0.406250 0.804376
vt 0.375000 0.804376
vt 0.375000 0.500000
vt 0.093750 0.804376
vt 0.093750 0.500000
vt 0.812500 0.804377
vt 0.781250 0.804376
vt 0.781250 0.500000
vt 0.531250 0.804376
vt 0.500000 0.804376
vt 0.500000 0.500000
vt 0.250000 0.804376
vt 0.218750 0.804376
vt 0.218750 0.500000
vt 0.937500 0.804376
vt 0.906250 0.804376
vt 0.656250 0.804376
vt 0.343750 0.804376
vt 0.093750 0.804376
vt 0.062500 0.804376
vt 0.781250 0.804376
vt 0.750000 0.804376
vt 0.500000 0.804376
vt 0.468750 0.804376
vt 0.218750 0.804376
vt 0.187500 0.804377
vt 0.000000 1.000000
vt 0.312500 1.000000
vt 0.531250 1.000000
vt 1.000000 1.000000
s 0
f 32/1/1 128/2/1 65/3/1 1/4/1
f 133/5/2 129/6/2 33/7/2 35/5/2
f 137/8/3 135/9/3 36/9/3 37/8/3
f 139/10/4 137/8/4 37/8/4 38/10/4
f 141/11/5 139/12/5 38/10/5 39/11/5
f 143/13/6 141/11/6 39/11/6 40/13/6
f 145/14/7 143/13/7 40/13/7 41/14/7
f 147/15/8 145/14/8 41/14/8 42/15/8
f 149/16/9 147/17/9 42/15/9 43/16/9
f 151/18/10 149/19/10 43/16/10 44/18/10
f 153/20/11 151/18/11 44/18/11 45/20/11
f 155/21/12 153/20/12 45/20/12 46/21/12
f 157/22/13 155/21/13 46/21/13 47/22/13
f 159/23/14 157/22/14 47/22/14 48/23/14
f 161/24/15 159/23/15 48/23/15 49/24/15
f 163/25/16 161/24/16 49/24/16 50/25/16
f 165/26/17 163/27/17 50/25/17 51/26/17
f 167/28/18 165/26/18 51/26/18 52/28/18
f 169/29/19 167/28/19 52/28/19 53/29/19
f 171/30/20 169/29/20 53/29/20 54/30/20
f 173/31/21 171/32/21 54/30/21 55/31/21
f 175/33/22 173/31/22 55/31/22 56/33/22
f 177/34/23 175/33/23 56/33/23 57/34/23
f 179/35/24 177/34/24 57/34/24 58/35/24
f 181/36/25 179/35/25 58/35/25 59/36/25
f 183/37/26 181/36/26 59/36/26 60/37/26
f 185/38/27 183/37/27 60/37/27 61/38/27
f 187/39/28 185/38/28 61/38/28 62/39/28
f 189/40/29 187/39/29 62/39/29 63/40/29
f 191/41/30 189/40/30 63/40/30 64/41/30
f 4/42/31 72/43/31 74/44/31 5/45/31
f 135/9/32 133/46/32 35/5/32 36/9/32
f 73/8/33 71/9/33 136/9/33 138/8/33
f 13/47/34 90/48/34 92/49/34 14/50/34
f 22/51/35 108/52/35 110/53/35 23/54/35
f 31/55/36 126/56/36 128/57/36 32/1/36
f 9/58/37 82/59/37 84/60/37 10/61/37
f 18/62/38 100/63/38 102/64/38 19/65/38
f 27/66/39 118/67/39 120/68/39 28/69/39
f 5/45/40 74/44/40 76/70/40 6/71/40
f 14/50/41 92/72/41 94/73/41 15/74/41
f 23/54/42 110/53/42 112/75/42 24/76/42
f 10/61/43 84/77/43 86/78/43 11/79/43
f 19/65/44 102/80/44 104/81/44 20/82/44
f 28/69/45 120/83/45 122/84/45 29/85/45
f 6/71/46 76/70/46 78/86/46 7/87/46
f 15/74/47 94/88/47 96/89/47 16/90/47
f 24/76/48 112/91/48 114/92/48 25/93/48
f 1/94/49 65/95/49 68/96/49 2/97/49
f 2/97/50 68/98/50 70/99/50 3/100/50
f 11/79/51 86/78/51 88/101/51 12/102/51
f 20/82/52 104/103/52 106/104/52 21/105/52
f 29/85/53 122/84/53 124/106/53 30/107/53
f 7/87/54 78/108/54 80/109/54 8/110/54
f 16/90/55 96/111/55 98/112/55 17/113/55
f 25/93/56 114/114/56 116/115/56 26/116/56
f 3/100/57 70/117/57 72/118/57 4/42/57
f 12/102/58 88/119/58 90/48/58 13/47/58
f 21/105/59 106/104/59 108/120/59 22/51/59
f 30/107/60 124/121/60 126/122/60 31/55/60
f 8/110/61 80/123/61 82/124/61 9/58/61
f 17/113/62 98/125/62 100/126/62 18/62/62
f 26/116/63 116/127/63 118/128/63 27/66/63
f 127/41/64 125/40/64 190/40/64 192/41/64
f 101/26/65 99/25/65 164/25/65 166/26/65
f 75/10/66 73/8/66 138/8/66 140/10/66
f 66/129/67 127/41/67 192/41/67 131/129/67
f 103/28/68 101/26/68 166/26/68 168/28/68
f 77/11/69 75/10/69 140/10/69 142/11/69
f 105/29/70 103/28/70 168/28/70 170/29/70
f 79/13/71 77/11/71 142/11/71 144/13/71
f 107/30/72 105/29/72 170/29/72 172/30/72
f 81/14/73 79/13/73 144/13/73 146/14/73
f 109/31/74 107/30/74 172/30/74 174/130/74
f 83/15/75 81/14/75 146/14/75 148/17/75
f 111/33/76 109/31/76 174/31/76 176/33/76
f 85/16/77 83/15/77 148/15/77 150/16/77
f 113/34/78 111/33/78 176/33/78 178/34/78
f 87/18/79 85/16/79 150/16/79 152/18/79
f 115/35/80 113/34/80 178/34/80 180/35/80
f 89/20/81 87/18/81 152/18/81 154/20/81
f 117/36/82 115/35/82 180/35/82 182/36/82
f 91/21/83 89/20/83 154/20/83 156/21/83
f 119/37/84 117/36/84 182/36/84 184/37/84
f 93/22/85 91/21/85 156/21/85 158/22/85
f 69/5/86 67/7/86 130/7/86 134/5/86
f 121/38/87 119/37/87 184/37/87 186/38/87
f 95/23/88 93/22/88 158/22/88 160/131/88
f 132/129/89 191/41/89 64/41/89 34/129/89
f 123/39/90 121/38/90 186/38/90 188/39/90
f 97/24/91 95/23/91 160/23/91 162/24/91
f 71/9/92 69/5/92 134/5/92 136/9/92
f 125/40/93 123/39/93 188/39/93 190/40/93
f 99/25/94 97/24/94 162/24/94 164/25/94
f 1/4/95 2/97/95 3/100/95 4/42/95 5/45/95 6/71/95 7/87/95 8/110/95 9/58/95 10/61/95 11/79/95 12/102/95 13/47/95 14/50/95 15/74/95 16/90/95 17/113/95 18/62/95 19/65/95 20/82/95 21/105/95 22/51/95 23/54/95 24/76/95 25/93/95 26/116/95 27/66/95 28/69/95 29/85/95 30/107/95 31/55/95 32/1/95
f 68/96/96 65/95/96 66/132/96 67/7/96
f 70/99/97 68/98/97 67/7/97 69/5/97
f 72/118/98 70/117/98 69/5/98 71/9/98
f 74/44/99 72/43/99 71/9/99 73/8/99
f 76/70/100 74/44/100 73/8/100 75/10/100
f 78/86/101 76/70/101 75/10/101 77/11/101
f 80/109/102 78/108/102 77/11/102 79/13/102
f 82/124/103 80/123/103 79/13/103 81/14/103
f 84/60/104 82/59/104 81/14/104 83/15/104
f 86/78/105 84/77/105 83/15/105 85/16/105
f 88/101/106 86/78/106 85/16/106 87/18/106
f 90/48/107 88/119/107 87/18/107 89/20/107
f 92/49/108 90/48/108 89/20/108 91/21/108
f 94/73/109 92/72/109 91/21/109 93/22/109
f 96/89/110 94/88/110 93/22/110 95/23/110
f 98/112/111 96/111/111 95/23/111 97/24/111
f 100/126/112 98/125/112 97/24/112 99/25/112
f 102/64/113 100/63/113 99/25/113 101/26/113
f 104/81/114 102/80/114 101/26/114 103/28/114
f 106/104/115 104/103/115 103/28/115 105/29/115
f 108/120/116 106/104/116 105/29/116 107/30/116
f 110/53/117 108/52/117 107/30/117 109/31/117
f 112/75/118 110/53/118 109/31/118 111/33/118
f 114/92/119 112/91/119 111/33/119 113/34/119
f 116/115/120 114/114/120 113/34/120 115/35/120
f 118/128/121 116/127/121 115/35/121 117/36/121
f 120/68/122 118/67/122 117/36/122 119/37/122
f 122/84/123 120/83/123 119/37/123 121/38/123
f 124/106/124 122/84/124 121/38/124 123/39/124
f 126/122/125 124/121/125 123/39/125 125/40/125
f 128/57/126 126/56/126 125/40/126 127/41/126
f 65/3/127 128/2/127 127/41/127 66/129/127
f 129/7/128 132/132/128 34/132/128 33/7/128
f 130/6/129 131/132/129 132/132/129 129/7/129
f 134/5/130 130/7/130 129/6/130 133/5/130
f 136/9/131 134/5/131 133/46/131 135/9/131
f 138/8/132 136/9/132 135/9/132 137/8/132
f 140/10/133 138/8/133 137/8/133 139/10/133
f 142/11/134 140/10/134 139/12/134 141/11/134
f 144/13/135 142/11/135 141/11/135 143/13/135
f 146/14/136 144/13/136 143/13/136 145/14/136
f 148/17/137 146/14/137 145/14/137 147/15/137
f 150/16/138 148/15/138 147/17/138 149/16/138
f 152/18/139 150/16/139 149/19/139 151/18/139
f 154/20/140 152/18/140 151/18/140 153/20/140
f 156/21/141 154/20/141 153/20/141 155/21/141
f 158/22/142 156/21/142 155/21/142 157/22/142
f 160/131/143 158/22/143 157/22/143 159/23/143
f 162/24/144 160/23/144 159/23/144 161/24/144
f 164/25/145 162/24/145 161/24/145 163/25/145
f 166/26/146 164/25/146 163/27/146 165/26/146
f 168/28/147 166/26/147 165/26/147 167/28/147
f 170/29/148 168/28/148 167/28/148 169/29/148
f 172/30/149 170/29/149 169/29/149 171/30/149
f 174/130/150 172/30/150 171/32/150 173/31/150
f 176/33/151 174/31/151 173/31/151 175/33/151
f 178/34/152 176/33/152 175/33/152 177/34/152
f 180/35/153 178/34/153 177/34/153 179/35/153
f 182/36/154 180/35/154 179/35/154 181/36/154
f 184/37/155 182/36/155 181/36/155 183/37/155
f 186/38/156 184/37/156 183/37/156 185/38/156
f 188/39/157 186/38/157 185/38/157 187/39/157
f 190/40/158 188/39/158 187/39/158 189/40/158
f 192/41/159 190/40/159 189/40/159 191/41/159
f 131/129/160 192/41/160 191/41/160 132/129/160
f 67/7/161 66/132/161 131/132/161 130/6/161
f 33/7/162 34/129/162 64/41/162 63/40/162 62/39/162 61/38/162 60/37/162 59/36/162 58/35/162 57/34/162 56/33/162 55/31/162 54/30/162 53/29/162 52/28/162 51/26/162 50/25/162 49/24/162 48/23/162 47/22/162 46/21/162 45/20/162 44/18/162 43/16/162 42/15/162 41/14/162 40/13/162 39/11/162 38/10/162 37/8/162 36/9/162 35/5/162
