# Blender 3.6.2
# www.blender.org
mtllib TriggerFlowFiole.mtl
o Cylinder
v 0.056258 1.701859 -0.282826
v -0.000000 1.701859 -0.288367
v 0.110353 1.701859 -0.266417
v 0.160208 1.701859 -0.239769
v 0.203906 1.701859 -0.203906
v 0.239769 1.701859 -0.160208
v 0.266417 1.701859 -0.110353
v 0.282826 1.701859 -0.056258
v 0.288367 1.701859 0.000000
v 0.282826 1.701859 0.056258
v 0.266417 1.701859 0.110353
v 0.239769 1.701859 0.160208
v 0.203906 1.701859 0.203906
v 0.160208 1.701859 0.239769
v 0.110353 1.701859 0.266417
v 0.056258 1.701859 0.282826
v -0.000000 1.701859 0.288367
v -0.056258 1.701859 0.282826
v -0.110353 1.701859 0.266417
v -0.160208 1.701859 0.239769
v -0.203906 1.701859 0.203906
v -0.239769 1.701859 0.160208
v -0.266417 1.701859 0.110353
v -0.282826 1.701859 0.056258
v -0.288367 1.701859 0.000000
v -0.282826 1.701859 -0.056258
v -0.266417 1.701859 -0.110353
v -0.239769 1.701859 -0.160208
v -0.203906 1.701859 -0.203906
v -0.160208 1.701859 -0.239769
v -0.110353 1.701859 -0.266417
v -0.056258 1.701859 -0.282826
vn -0.0000 1.0000 -0.0000
vt 0.968750 1.000000
vt 0.000000 1.000000
vt 0.031250 1.000000
vt 0.062500 1.000000
vt 0.093750 1.000000
vt 0.125000 1.000000
vt 0.156250 1.000000
vt 0.187500 1.000000
vt 0.218750 1.000000
vt 0.250000 1.000000
vt 0.281250 1.000000
vt 0.312500 1.000000
vt 0.343750 1.000000
vt 0.375000 1.000000
vt 0.406250 1.000000
vt 0.437500 1.000000
vt 0.468750 1.000000
vt 0.500000 1.000000
vt 0.531250 1.000000
vt 0.562500 1.000000
vt 0.593750 1.000000
vt 0.625000 1.000000
vt 0.656250 1.000000
vt 0.687500 1.000000
vt 0.718750 1.000000
vt 0.750000 1.000000
vt 0.781250 1.000000
vt 0.812500 1.000000
vt 0.843750 1.000000
vt 0.875000 1.000000
vt 0.906250 1.000000
vt 0.937500 1.000000
s 0
f 1/1/1 2/2/1 32/3/1 31/4/1 30/5/1 29/6/1 28/7/1 27/8/1 26/9/1 25/10/1 24/11/1 23/12/1 22/13/1 21/14/1 20/15/1 19/16/1 18/17/1 17/18/1 16/19/1 15/20/1 14/21/1 13/22/1 12/23/1 11/24/1 10/25/1 9/26/1 8/27/1 7/28/1 6/29/1 5/30/1 4/31/1 3/32/1
